<?xml version="1.0" encoding="UTF-8"?>
<svg id="logo" version="1.1" viewBox="0 0 132.44 120.44" xmlns="http://www.w3.org/2000/svg">
 <g transform="translate(-43.448 -40.978)">
  <path d="m174.06 161.22c-3.2277-0.53733-15.705-2.1068-20.592-2.5901-11.539-1.1413-25.912-1.3533-36.93-0.54476-2.0235 0.1485-3.7266 0.2225-3.7846 0.16447-0.058-0.058 1.2404-1.0313 2.8854-2.1628 6.5224-4.4864 9.7624-7.2117 12.607-10.604 3.4774-4.1467 5.5562-8.2487 6.7801-13.379 0.64091-2.6863 1.3251-7.3183 1.1124-7.531-0.06-0.06-0.37771 1.056-0.70612 2.48-2.6631 11.547-8.9913 20.732-16.713 24.258-1.0682 0.48773-2.597 1.0311-3.3973 1.2076-0.80037 0.17642-1.6933 0.37708-1.9844 0.44591-0.29104 0.0688 0.0962-0.22897 0.86054-0.6618 5.9487-3.3685 10.915-8.7269 14.095-15.207 4.5596-9.2911 4.1524-19.037-1.0669-25.532-2.7145-3.378-8.351-6.9871-13.095-8.385-2.6163-0.77087-8.2069-1.1908-9.8943-0.74327-0.88097 0.23366-0.84747 0.25565 1.7198 1.1291 11.83 4.0251 17.986 8.019 20.618 13.377 1.3192 2.6858 1.758 4.6062 1.904 8.3344 0.15039 3.8378-0.27122 6.6181-1.5557 10.259-3.135 8.8865-8.7766 15.044-16.093 17.566-3.2286 1.1129-16.187 3.2293-27.919 4.56-8.9683 1.0172-39.258 3.7181-39.458 3.5184-0.135-0.135 11.499-2.1829 18.291-3.2199 3.347-0.51096 10.134-1.5322 15.081-2.2694 22.617-3.3698 31.957-5.8327 38.365-10.117 2.1065-1.4083 6.0419-5.4336 7.6074-7.7812 1.633-2.4488 3.2481-5.8554 3.8017-8.019 0.58134-2.2719 0.54936-5.0667-0.0772-6.7469l-0.49335-1.3229-1.9797-0.44182c-1.0888-0.243-3.5666-0.73726-5.5061-1.0984-3.8428-0.71544-5.4183-1.3573-8.8824-3.6187-1.115-0.7279-2.0832-1.3235-2.1514-1.3235-0.0683 0-0.1241 1.7859-0.1241 3.9688v3.9688h-8.4667v-8.4525l7.7406-0.1464-3.756-3.0427c-6.4928-5.2597-9.0632-7.1061-11.79-8.469-1.4552-0.72739-2.8244-1.3239-3.0427-1.3256-0.21828-2e-3 -0.56277-0.10813-0.76553-0.23653-0.49127-0.31108 0.99888-2.9997 3.1297-5.6467 6.8334-8.489 17.795-10.572 26.462-5.0274 1.9178 1.2268 4.8004 4.0155 6.2663 6.0622 2.1062 2.9407 4.2344 7.9144 5.2465 12.262 0.0847 0.3638 0.93948 1.4949 1.8995 2.5135l1.7455 1.8521-0.15129-3.0427c-0.23073-4.6401-1.4837-9.1414-4.9346-17.727-0.9066-2.2556-1.7615-4.3947-1.8998-4.7535-0.19091-0.49543-0.30495-0.5659-0.47377-0.29274-0.50943 0.82428-2.3511-3.3176-5.6406-12.686-2.4547-6.9905-3.3735-9.2828-3.6521-9.1107-0.36305 0.22438-0.2949 3.1353 0.12978 5.5436 1.1018 6.248 3.5385 12.997 5.9892 16.587l1.0687 1.5656-1.0039-0.16848c-3.1729-0.5325-6.2626-2.354-9.2352-5.4446-4.6544-4.839-6.2577-9.3483-6.246-17.566 0.0114-7.9633 1.8497-14.824 5.3526-19.976 1.6537-2.4323 4.6607-4.9949 6.358-5.4183 0.59379-0.14813 0.8751 0.07492 2.3932 1.8976 3.8095 4.5739 7.3097 9.5655 8.3383 11.891 1.4604 3.3022 1.8252 5.417 1.8196 10.547l-5e-3 4.7625-1.2672 4.7625c-0.69699 2.6194-1.7522 6.2264-2.345 8.0155l-1.0777 3.253 1.3985 3.0308c0.7692 1.6669 1.4101 3.0309 1.4241 3.031 0.0141 1.19e-4 -0.0135-1.7561-0.0613-3.9026-0.10117-4.5433 0.36272-7.348 2.0976-12.682 1.2498-3.8429 2.5338-5.9125 4.8109-7.755 4.0107-3.2452 9.1673-4.6867 15.8-4.4169 7.0044 0.28492 13.854 2.9234 17.58 6.7721l1.0438 1.078-0.77918 0.81827c-0.42855 0.45005-1.3392 1.231-2.0237 1.7355-2.2214 1.6372-4.4283 4.9614-9.7252 14.648-1.7903 3.2742-3.7822 6.7713-4.4265 7.7713-2.8584 4.4368-7.7908 8.2633-13.047 10.121l-1.7198 0.6079 0.0291 1.3994c0.016 0.76965 0.12189 4.1378 0.23529 7.4848 0.23504 6.9368-0.0308 10.705-1.092 15.478-1.482 6.6657-4.8965 13.69-9.8516 20.267l-0.81704 1.0844 4.8221 0.18451c13.296 0.50875 25.668 2.509 37.895 6.1264 6.6959 1.9811 8.5208 2.7999 4.8948 2.1963zm-40.235-61.079c0.43143-6.0038 0.79174-8.623 1.4907-10.837 0.34265-1.0852 0.57913-2.0169 0.52552-2.0705-0.0536-0.05361-0.54555 0.70377-1.0932 1.6831-1.2338 2.2063-2.324 5.34-2.9193 8.3917l-0.45396 2.3271 0.61981 1.5093c0.34089 0.83013 0.78425 1.9092 0.98525 2.3978 0.20099 0.48867 0.40708 0.84586 0.45798 0.79375 0.0509-0.0521 0.22515-1.9402 0.38723-4.1958zm5.7689-13.158c1.4686-2.2231 2.1858-3.8643 1.8399-4.2102-0.0731-0.07309-0.48516 0.04929-0.91572 0.27194-1.016 0.52538-2.7073 3.745-3.6177 6.8867-0.93019 3.2099-0.84094 3.8527 0.20532 1.4787 0.481-1.0914 1.6007-3.0836 2.4883-4.4272zm-68.021 61.978c-2.1198-5.064-3.1723-9.5695-3.6332-15.554-0.53029-6.8843 0.578-16.216 2.8255-23.792 0.12262-0.41328-0.58159-0.45376-9.2067-0.52917-10.036-0.0877-10.829-0.19253-11.009-1.4547-0.1083-0.7574 1.3575-2.3664 3.6155-3.9686 0.96709-0.68623 7.771-5.6079 15.12-10.937 17.704-12.838 23.918-17.271 28.806-20.549 9.394-6.2988 4.8083-1.8785-16.106 15.525-8.1273 6.7629-12.887 10.803-17.835 15.14l-0.81792 0.71685 6.5328 0.0108c3.5931 6e-3 6.5865 0.10004 6.6522 0.20919 0.06564 0.10914-0.28303 1.7462-0.77482 3.638-1.8602 7.1557-2.7529 14.267-2.7529 21.93 0 7.4773 0.85547 13.474 2.7503 19.279l0.84207 2.5797h-4.0686zm16.762-18.922v-4.2333h8.4667v8.4667h-8.4667zm10.583 0v-4.2333h8.4667v8.4667h-8.4667zm-10.583-11.112v-4.2333h8.4667v8.4667h-8.4667z" stroke-width=".26458"/>
 </g>
</svg>