<?xml version="1.0" encoding="UTF-8"?>
<svg id="logo" version="1.1" viewBox="0 0 136.92 129.01" xmlns="http://www.w3.org/2000/svg">
 <g transform="translate(309.28 370.35)">
  <path d="m-243.24-241.38c-7.8329-0.31486-15.639-2.0496-22.807-5.0686-2.4257-1.022-4.9055-2.2475-7.1738-3.5455-7.7821-4.4531-14.668-10.545-20.059-17.745-3.4024-4.5443-6.15-9.4087-8.3064-14.702-0.1787-0.44918-0.33234-0.84215-0.33234-0.87354 0-0.0408 1.0546-0.0517 6.565-0.0408l6.565 6e-3 0.27649 0.61039c2.0544 4.5472 4.8669 9.1097 7.9858 12.957 10.151 12.524 24.755 20.37 40.695 21.86 2.078 0.19348 3.3216 0.24771 5.6178 0.24709 2.2832-8.1e-4 3.5107-0.0515 5.5964-0.24766 16.396-1.5276 31.413-9.8174 41.537-22.93 2.2786-2.9511 4.247-6.0706 5.9444-9.4198 0.37671-0.74396 0.77825-1.5551 0.8915-1.8033 0.1112-0.24721 0.22674-0.45232 0.25257-0.45273 0.0185-5.5e-4 0.0778 0.0302 0.1171 0.0792 0.067 0.0751 0.0636 0.0952-0.0779 0.4407-0.50092 1.2107-1.5048 3.3356-2.2677 4.8026-3.8702 7.4373-9.1118 14.107-15.429 19.633-5.2249 4.5704-11.13 8.2993-17.423 11.002-6.7727 2.9091-13.895 4.6184-21.29 5.1092-1.8627 0.12197-4.9376 0.15907-6.8794 0.0818zm6.8796-10.415c-0.12641-6e-3 -0.64752-0.0287-1.1566-0.06-3.2499-0.1624-6.808-0.68692-10.099-1.4898-15.055-3.6746-28.024-13.648-35.513-27.311-0.62348-1.1378-1.3258-2.527-1.3258-2.6228 0-0.0763 0.0174-0.0886 0.14415-0.0886 0.14017 0 0.14819 6e-3 0.51155 0.66231 3.2821 5.9108 7.6008 10.967 12.915 15.121 7.1274 5.5702 15.765 9.1365 24.805 10.24 2.1446 0.26202 4.019 0.37393 6.2694 0.37393 1.7651 0 2.7842-0.0382 4.4394-0.18362 14.319-1.2321 27.32-8.4325 35.898-19.879 1.2504-1.6689 2.5555-3.6934 3.6551-5.6697l0.36885-0.66304h5.57c4.9405 0 5.5705 3e-3 5.5705 0.0636 0 0.18197-1.3031 2.6905-2.1874 4.2074-7.8794 13.51-21.292 23.074-36.735 26.197-2.6187 0.52957-5.103 0.85683-7.8267 1.0314-0.90497 0.0568-4.7279 0.11089-5.3024 0.0736zm-24.428-37.183c-6e-3 -0.0244-0.0103-3.8968-6e-3 -8.5945l6e-3 -8.542 15.233-0.0148c16.693-0.0182 15.431-3e-3 16.598-0.25655 2.651-0.5721 4.0501-2.0543 3.7916-4.017-0.11074-0.84855-0.38072-1.4122-0.93279-1.9569-0.8342-0.82263-2.2332-1.3042-4.2619-1.4669-0.35994-0.0238-5.5709-0.0346-15.451-0.0346-8.1992 0-14.917-0.0103-14.929-0.0291-6e-3 -0.0148 1.5037-1.9885 3.368-4.3764l3.3906-4.3421 11.094 7.7e-4c10.603 5e-4 11.951 0.0104 13.281 0.12493 6.903 0.58501 11.997 3.2826 14.071 7.4514 0.75384 1.5151 1.0813 2.9081 1.1264 4.7926 0.0148 0.78156 6e-3 1.1086-0.0429 1.5571-0.23585 1.9317-0.89296 3.5322-2.1128 5.1677-0.4497 0.60416-1.5782 1.7403-2.2251 2.2421-1.0276 0.79745-2.2263 1.4996-3.4068 1.9956-0.40957 0.17122-0.52565 0.24901-0.46132 0.30806 0.0148 0.0148 2.7342 2.2745 6.0258 5.01 3.2926 2.7356 5.986 4.9914 5.986 5.0134 0 0.0179-2.8354 0.0376-7.5496 0.0376h-7.5495l-5.0927-4.2287-5.0928-4.2293-14.374 0.012-0.0148 4.2082-0.0148 4.2073-5.2084 6e-3c-4.1449 6e-3 -5.2127 0-5.2287-0.0386zm51.883 0c-6e-3 -0.0244-0.0104-7.6076-6e-3 -16.841l6e-3 -16.789h10.393l0.0148 12.476 0.0148 12.476 26.117 0.0296-3.3112 4.2504c-1.821 2.3371-3.3507 4.2923-3.3985 4.3445l-0.0846 0.0926h-14.869c-11.856 0-14.872-6e-3 -14.888-0.0492zm-100.38-10.488v-10.499h14.831c16.277 0 15.23 0.0104 16.288-0.25071 0.99498-0.24926 1.6892-0.7295 1.8918-1.3059 0.0862-0.2517 0.0782-0.66551-0.0148-0.936-0.20405-0.54929-0.91933-1.002-1.9649-1.2464-0.96294-0.22627-0.0776-0.21486-16.141-0.21486-14.481-9e-4 -14.886-1e-3 -14.833-0.0778 0.0231-0.0377 1.617-2.0128 3.526-4.3765l3.4711-4.2978 11.025 5.5e-4c6.5898 4.1e-4 11.279 0.0104 11.656 0.0349 3.3019 0.21023 6.0396 0.86146 8.4135 1.9951 1.5548 0.74258 2.7174 1.5425 3.7931 2.613 1.5396 1.5312 2.4038 3.0727 2.7362 4.8811 0.10778 0.59802 0.10971 1.9374 1e-3 2.5249-0.21487 1.1662-0.66393 2.2455-1.324 3.1978-0.30664 0.44231-0.89852 1.1519-1.2451 1.4934-0.15194 0.15133-0.27658 0.28513-0.27658 0.30169 0 0.0103 0.13987 0.17192 0.31269 0.34665 0.96535 0.97797 1.6078 1.8884 2.0468 2.8978 0.62379 1.4367 0.75185 3.1464 0.35223 4.6872-0.55318 2.1279-2.2061 4.2219-4.5024 5.7035-2.378 1.5344-5.6889 2.5767-9.192 2.8922-1.3289 0.11872-2.3199 0.12626-16.357 0.12626l-14.486 1.2e-4zm31.159 1.6694c1.8844-0.30572 2.7903-0.67673 3.0934-1.2708 0.10749-0.21246 0.10808-0.54022 1e-3 -0.75002-0.33991-0.66627-1.6786-1.1344-3.8111-1.334-0.5804-0.0519-2.0128-0.0615-10.31-0.05l-9.6354 6e-3 -6e-3 1.7043c-3e-3 0.9371-1e-3 1.7284 6e-3 1.7579 0.0104 0.0365 1.9502 0.0476 10.047 0.0365l10.026-6e-3 0.58904-0.0921zm-23.795-30.571c0-0.0256 0.14914-0.42486 0.33237-0.87315 3.9128-9.6052 9.9368-18.048 17.763-24.892 5.2646-4.6055 11.291-8.3687 17.776-11.1 4.6379-1.954 9.5218-3.3676 14.529-4.206 11.855-1.9846 23.902-0.71519 34.885 3.6755 9.8756 3.949 18.715 10.289 25.75 18.476 4.281 4.9803 7.8272 10.588 10.486 16.578 0.57952 1.3056 0.69332 1.602 0.6456 1.6776-0.10734 0.17261-0.17331 0.10261-0.44043-0.46493-0.14402-0.30885-0.55784-1.1473-0.92087-1.8649-3.5624-7.0359-8.4383-13.24-14.453-18.39-9.3276-7.9846-20.858-12.872-33.052-14.008-2.0856-0.1914-3.313-0.24658-5.5962-0.24658-2.2962-1.9e-4 -3.5399 0.0522-5.6178 0.24658-15.939 1.4907-30.543 9.3357-40.695 21.86-3.119 3.8473-5.9313 8.4102-7.9858 12.957l-0.27603 0.6106-6.565 6e-3c-5.5104 6e-3 -6.565 1e-3 -6.565-0.0426zm17.462-0.0103c0-0.0837 0.67928-1.437 1.2753-2.5356 4.5295-8.3468 11.379-15.6 19.49-20.64 7.9559-4.9431 16.71-7.7114 26.173-8.2755 1.2212-0.0741 4.8407-0.0741 6.0801 7.3e-4 2.8464 0.16775 5.5093 0.51033 8.2057 1.0558 15.444 3.123 28.855 12.688 36.735 26.197 0.8847 1.5175 2.1872 4.021 2.1872 4.2044 0 0.0586-0.52143 0.0642-5.5701 0.0642h-5.5699l-0.39269-0.70461c-3.5682-6.4144-8.3982-11.861-14.325-16.152-7.3824-5.3456-16.067-8.5695-25.205-9.3554-1.6552-0.14297-2.6747-0.18174-4.4392-0.18174-1.7646 0-2.784 0.0352-4.439 0.18174-11.826 1.0183-22.804 6.1024-31.16 14.43-3.3523 3.3412-6.0932 6.9698-8.3674 11.077-0.38684 0.69817-0.39194 0.70461-0.53467 0.70461-0.1063 0-0.14401-0.0104-0.14401-0.0702z"/>
 </g>
</svg>
